<svg width="61" height="61" viewBox="0 0 61 61" fill="none" xmlns="http://www.w3.org/2000/svg">
<g filter="url(#filter0_d_1_322)">
<rect x="4" width="53" height="53" rx="26.5" fill="white"/>
<g clip-path="url(#clip0_1_322)">
<rect width="42" height="28" transform="translate(9 13)" fill="white"/>
<mask id="mask0_1_322" style="mask-type:luminance" maskUnits="userSpaceOnUse" x="7" y="11" width="47" height="31">
<path d="M7.57812 11.1538H53.6147V41.8938H7.57812V11.1538Z" fill="white"/>
</mask>
<g mask="url(#mask0_1_322)">
<path d="M48.2989 20.2497H42.4337C42.4051 20.2509 42.3764 20.2485 42.3484 20.2431C42.3204 20.2377 42.2935 20.2293 42.2673 20.218C42.2411 20.2066 42.2162 20.1928 42.193 20.176C42.1698 20.1593 42.1491 20.1407 42.1302 20.1191C42.1113 20.0981 42.0955 20.0748 42.0821 20.0502C42.0681 20.0251 42.0577 19.9993 42.0498 19.9723C42.0419 19.9454 42.0376 19.9172 42.0358 19.8891C42.0346 19.8615 42.0358 19.8334 42.0407 19.8058L42.8493 13.6937C42.8535 13.6662 42.8554 13.6386 42.8542 13.6105C42.8523 13.5823 42.8481 13.5548 42.8401 13.5278C42.8322 13.5008 42.8219 13.4751 42.8085 13.4505C42.7951 13.426 42.7792 13.4026 42.7603 13.3816C42.7414 13.3601 42.7207 13.3415 42.6982 13.3247C42.675 13.308 42.6506 13.2936 42.6244 13.2822C42.5988 13.2708 42.5714 13.2624 42.5434 13.257C42.516 13.2516 42.4873 13.2492 42.4587 13.2498H16.4423C16.3375 13.2522 16.2339 13.2642 16.1309 13.2846C16.0285 13.305 15.9286 13.3343 15.8311 13.3721C15.7336 13.4098 15.6404 13.4553 15.5508 13.5092C15.4618 13.5631 15.3777 13.6242 15.2997 13.6925C15.2211 13.7608 15.1492 13.8351 15.084 13.916C15.0188 13.9963 14.9615 14.0819 14.9116 14.1724C14.8616 14.2628 14.8196 14.3569 14.7867 14.4545C14.7531 14.5522 14.7288 14.6522 14.7135 14.7541L14.5508 15.9821H24.5804C24.6743 15.9797 24.7681 15.9875 24.8601 16.0055C24.9527 16.0234 25.0423 16.051 25.1282 16.0881C25.2148 16.1253 25.2958 16.1714 25.372 16.2265C25.4476 16.281 25.517 16.3439 25.5786 16.4134C25.6407 16.4835 25.6943 16.559 25.7388 16.6405C25.7839 16.7219 25.8193 16.8076 25.8449 16.8968C25.8711 16.9861 25.8863 17.0766 25.8918 17.1694C25.8973 17.2617 25.8918 17.3539 25.8766 17.4456C25.8613 17.5444 25.8376 17.6415 25.8053 17.7367C25.7723 17.8314 25.7315 17.923 25.6828 18.0111C25.634 18.0991 25.578 18.1818 25.5146 18.2603C25.4512 18.3387 25.3811 18.4112 25.305 18.4777C25.2282 18.5436 25.1465 18.6029 25.06 18.6556C24.9729 18.7078 24.8821 18.7527 24.7876 18.7892C24.6925 18.8258 24.595 18.8545 24.4957 18.8743C24.3958 18.8941 24.2946 18.9054 24.1929 18.9084H10.5491C10.4809 18.909 10.4138 18.9156 10.3474 18.9282C10.2804 18.9402 10.2152 18.9582 10.1518 18.9821C10.0884 19.0061 10.0281 19.0348 9.9696 19.0696C9.91171 19.1037 9.85687 19.1433 9.80568 19.187C9.75449 19.2307 9.70818 19.2793 9.66552 19.3314C9.62348 19.3835 9.5857 19.4386 9.5534 19.4973C9.5211 19.556 9.49429 19.6171 9.47296 19.6806C9.45164 19.7435 9.43579 19.8082 9.42665 19.8747V19.9023C9.4169 19.9616 9.41386 20.0215 9.41751 20.082C9.42117 20.1419 9.43153 20.2012 9.44859 20.2593C9.46504 20.3168 9.4882 20.3725 9.51745 20.4258C9.54609 20.4785 9.58082 20.5277 9.62104 20.5738C9.66126 20.6193 9.70574 20.6601 9.7551 20.696C9.80385 20.7319 9.85687 20.7625 9.91232 20.7871C9.96838 20.8116 10.0263 20.8302 10.0866 20.8428C10.1463 20.8547 10.2073 20.8607 10.2682 20.8601H23.943C24.0375 20.8577 24.1307 20.8649 24.2233 20.8829C24.3153 20.9009 24.4049 20.9284 24.4915 20.9656C24.5774 21.0027 24.6584 21.0488 24.7346 21.1039C24.8102 21.1591 24.879 21.2214 24.9412 21.2915C25.0027 21.3609 25.0563 21.437 25.1008 21.5185C25.1459 21.6 25.1807 21.6856 25.2062 21.7743C25.2318 21.8635 25.2477 21.9546 25.2526 22.0468C25.2574 22.1397 25.2526 22.2314 25.2367 22.323C25.2215 22.4225 25.1977 22.5195 25.1654 22.6141C25.1331 22.7094 25.0923 22.801 25.0435 22.8891C24.9948 22.9772 24.9387 23.0604 24.8754 23.1389C24.812 23.2168 24.7419 23.2893 24.6657 23.3558C24.589 23.4223 24.5073 23.4816 24.4208 23.5337C24.3336 23.5864 24.2428 23.6307 24.1478 23.6673C24.0533 23.7038 23.9558 23.7326 23.8559 23.7523C23.7559 23.7721 23.6548 23.7835 23.553 23.7859H13.4113C13.3449 23.7877 13.2791 23.7955 13.2133 23.8086C13.1481 23.8218 13.0847 23.8404 13.0225 23.8644C12.961 23.8883 12.9013 23.9177 12.8446 23.9518C12.7879 23.986 12.7343 24.0249 12.6843 24.0686C12.6344 24.1118 12.5887 24.1591 12.5472 24.2106C12.5058 24.2621 12.4692 24.3166 12.4375 24.3741C12.4059 24.4317 12.379 24.4916 12.3577 24.5533C12.337 24.6156 12.3212 24.6791 12.3114 24.7438V24.7713C12.3017 24.8312 12.2986 24.8911 12.3023 24.951C12.3059 25.0115 12.3163 25.0702 12.3333 25.1283C12.3498 25.1865 12.3729 25.2422 12.4022 25.2949C12.4314 25.3482 12.4656 25.3973 12.5058 25.4428C12.546 25.4884 12.5905 25.5291 12.6399 25.5656C12.6886 25.6016 12.7416 25.6315 12.7971 25.6567C12.8531 25.6813 12.911 25.6998 12.9713 25.7118C13.0311 25.7244 13.092 25.7304 13.1529 25.7292H23.2977C23.3909 25.728 23.4836 25.7364 23.575 25.7543C23.6664 25.7729 23.7547 25.8011 23.84 25.8382C23.9247 25.8754 24.0052 25.9215 24.0801 25.9766C24.1551 26.0311 24.2233 26.0928 24.2843 26.1623C24.3452 26.2318 24.3982 26.3067 24.4427 26.3875C24.4872 26.4684 24.5219 26.5529 24.5475 26.6409C24.5731 26.729 24.5883 26.8189 24.5938 26.9105C24.5999 27.0022 24.595 27.0932 24.5804 27.1843C24.5652 27.2831 24.5414 27.3802 24.5091 27.4754C24.4768 27.5707 24.436 27.6623 24.3879 27.7504C24.3391 27.8384 24.2831 27.9217 24.2191 28.0002C24.1557 28.0787 24.0856 28.1511 24.0094 28.2176C23.9333 28.2841 23.8516 28.3434 23.7645 28.3955C23.6773 28.4477 23.5865 28.4926 23.4915 28.5291C23.3964 28.5657 23.2989 28.5938 23.199 28.6136C23.099 28.6334 22.9985 28.6448 22.8967 28.6471H12.0616C11.9951 28.6489 11.9287 28.6567 11.8635 28.6699C11.7983 28.6825 11.7349 28.7017 11.6728 28.7256C11.6106 28.7496 11.5515 28.7789 11.4948 28.8131C11.4382 28.8472 11.3846 28.8862 11.3346 28.9299C11.2846 28.973 11.2389 29.0204 11.1975 29.0719C11.156 29.1228 11.1195 29.1773 11.0878 29.2348C11.0561 29.2923 11.0293 29.3522 11.008 29.4145C10.9872 29.4768 10.9714 29.5403 10.9617 29.605C10.9519 29.6643 10.9489 29.7242 10.9525 29.7847C10.9562 29.8446 10.9665 29.9039 10.9836 29.9621C11 30.0196 11.0232 30.0753 11.0524 30.1286C11.0811 30.1813 11.1158 30.231 11.156 30.2766C11.1963 30.3221 11.2407 30.3628 11.2901 30.3988C11.3388 30.4347 11.3919 30.4653 11.4473 30.4898C11.5034 30.515 11.5613 30.5329 11.6216 30.5455C11.6813 30.5581 11.7423 30.5635 11.8032 30.5629H12.6143L12.1286 34.2812C12.1127 34.3752 12.1073 34.4699 12.1127 34.5645C12.1182 34.6598 12.1341 34.7532 12.1603 34.8449C12.1865 34.9365 12.223 35.0246 12.2687 35.1085C12.3151 35.1923 12.3699 35.2702 12.4333 35.3421C12.4966 35.414 12.5673 35.4781 12.6453 35.5344C12.7233 35.5907 12.8068 35.6386 12.8958 35.677C12.9841 35.7153 13.0762 35.7435 13.1712 35.762C13.2663 35.78 13.362 35.7878 13.4588 35.7854H15.5216C15.1486 38.5847 17.1577 40.8539 20.0035 40.8539C22.8486 40.8539 25.4561 38.5847 25.829 35.7854H36.5996C36.2291 38.5847 38.2382 40.8539 41.0894 40.8539C43.9407 40.8539 46.5421 38.5847 46.9126 35.7854H49.7802C49.8436 35.7836 49.9039 35.7716 49.9624 35.7482C50.0209 35.7255 50.074 35.6931 50.1203 35.6518C50.1672 35.6099 50.2056 35.5619 50.2348 35.5074C50.2641 35.4523 50.283 35.3942 50.2915 35.3331L51.3743 27.1645L48.2989 20.2497ZM23.7523 35.8848C23.7157 36.0813 23.6633 36.2736 23.5945 36.4617C23.525 36.6498 23.4409 36.8307 23.341 37.005C23.241 37.1794 23.1271 37.3441 22.9991 37.4993C22.8718 37.6544 22.7316 37.7988 22.5793 37.9312C22.4269 38.063 22.2648 38.1822 22.0924 38.2882C21.9193 38.3936 21.7395 38.4847 21.5513 38.5608C21.3636 38.6369 21.1704 38.6968 20.9724 38.7411C20.7743 38.7854 20.5738 38.8136 20.3709 38.825C20.2691 38.8309 20.1674 38.8309 20.0656 38.8261C19.9638 38.8208 19.8627 38.8094 19.7621 38.7926C19.6616 38.7758 19.5623 38.7537 19.4642 38.7255C19.3667 38.6974 19.2704 38.6644 19.1765 38.6255C19.0827 38.5865 18.9913 38.5428 18.9023 38.4937C18.8134 38.4446 18.7274 38.3906 18.6452 38.3319C18.5623 38.2732 18.4831 38.2103 18.4081 38.1426C18.3326 38.0749 18.2619 38.0031 18.1949 37.9276C18.1278 37.8521 18.0657 37.7724 18.0078 37.6898C17.9505 37.6071 17.8975 37.5214 17.85 37.4328C17.8024 37.3441 17.7598 37.2537 17.7226 37.1602C17.6854 37.0667 17.6537 36.9715 17.6281 36.8745C17.6019 36.7774 17.5818 36.6792 17.5672 36.5803C17.5526 36.4809 17.5434 36.3814 17.5404 36.2808C17.538 36.1808 17.5404 36.0807 17.5495 35.9807C17.5581 35.8806 17.5727 35.7818 17.5928 35.6835C17.6287 35.4871 17.6812 35.2954 17.75 35.1079C17.8189 34.9204 17.903 34.7401 18.0023 34.5663C18.1016 34.3926 18.215 34.2279 18.3423 34.0727C18.4697 33.9176 18.6086 33.7738 18.7603 33.6414C18.9121 33.509 19.0736 33.3904 19.2454 33.2844C19.4172 33.1783 19.5964 33.0873 19.7835 33.0112C19.9706 32.9345 20.1631 32.874 20.3605 32.8291C20.558 32.7842 20.7579 32.7554 20.9602 32.7434C21.0619 32.7368 21.1643 32.7362 21.2667 32.741C21.3684 32.7458 21.4702 32.7566 21.5708 32.7728C21.6719 32.789 21.7712 32.8111 21.87 32.8387C21.9681 32.8662 22.0643 32.8992 22.1588 32.9381C22.2532 32.9765 22.3453 33.0202 22.4348 33.0693C22.5244 33.1178 22.6103 33.1717 22.6932 33.2305C22.7767 33.2892 22.8559 33.3521 22.9315 33.4198C23.007 33.4874 23.0789 33.5593 23.146 33.6348C23.2136 33.7109 23.2758 33.79 23.3343 33.8726C23.3922 33.9559 23.4452 34.0416 23.4933 34.1302C23.5415 34.2189 23.5841 34.3105 23.6213 34.404C23.6584 34.4974 23.6901 34.5933 23.7163 34.6903C23.7425 34.7874 23.7633 34.8856 23.7779 34.9857C23.7925 35.0851 23.8017 35.1851 23.8047 35.2858C23.8077 35.3858 23.8047 35.4865 23.7962 35.5865C23.787 35.6871 23.773 35.7866 23.7523 35.8848ZM44.8328 35.8848C44.7968 36.0813 44.7444 36.273 44.6756 36.4605C44.6067 36.648 44.5226 36.8283 44.4233 37.0021C44.324 37.1758 44.2106 37.3405 44.0833 37.4957C43.9565 37.6508 43.817 37.7946 43.6652 37.927C43.5135 38.0594 43.352 38.178 43.1802 38.284C43.0089 38.39 42.8292 38.4811 42.6421 38.5572C42.455 38.6339 42.2625 38.6944 42.065 38.7393C41.8676 38.7842 41.6677 38.8124 41.4654 38.825C41.3636 38.8309 41.2619 38.8309 41.1601 38.8261C41.0584 38.8208 40.9572 38.8094 40.8566 38.7926C40.7561 38.7758 40.6568 38.7537 40.5593 38.7255C40.4612 38.6974 40.3655 38.6644 40.271 38.6255C40.1772 38.5865 40.0858 38.5428 39.9968 38.4937C39.9079 38.4446 39.8219 38.3906 39.7397 38.3319C39.6568 38.2732 39.5782 38.2103 39.5026 38.1426C39.4277 38.0749 39.3564 38.0031 39.2894 37.9276C39.2223 37.8521 39.1602 37.7724 39.1029 37.6898C39.045 37.6071 38.992 37.5214 38.9445 37.4328C38.8969 37.3441 38.8543 37.2537 38.8171 37.1602C38.7799 37.0667 38.7488 36.9715 38.7226 36.8745C38.6964 36.7774 38.6763 36.6792 38.6617 36.5803C38.6471 36.4809 38.6385 36.3814 38.6355 36.2808C38.6325 36.1808 38.6355 36.0807 38.644 35.9807C38.6526 35.8806 38.6672 35.7818 38.6873 35.6835C38.7239 35.4871 38.7763 35.2954 38.8451 35.1079C38.9134 34.9204 38.9975 34.7401 39.0968 34.5663C39.1961 34.3926 39.3095 34.2279 39.4368 34.0727C39.5642 33.9176 39.7037 33.7738 39.8548 33.6414C40.0066 33.509 40.1681 33.3904 40.3399 33.2844C40.5117 33.1783 40.6909 33.0873 40.8786 33.0112C41.0657 32.9345 41.2576 32.874 41.4551 32.8291C41.6525 32.7842 41.8524 32.7554 42.0547 32.7434C42.1564 32.7374 42.2582 32.7368 42.36 32.7422C42.4617 32.7476 42.5629 32.759 42.6634 32.7758C42.764 32.7926 42.8633 32.8147 42.9614 32.8429C43.0589 32.8704 43.1552 32.904 43.249 32.9429C43.3429 32.9818 43.4349 33.0256 43.5232 33.0747C43.6122 33.1238 43.6981 33.1777 43.781 33.2364C43.8633 33.2951 43.9425 33.358 44.0174 33.4257C44.093 33.4934 44.1637 33.5653 44.2307 33.6408C44.2978 33.7163 44.3599 33.796 44.4178 33.8786C44.4757 33.9613 44.5281 34.047 44.5756 34.135C44.6238 34.2237 44.6658 34.3147 44.703 34.4082C44.7402 34.5016 44.7718 34.5969 44.798 34.6939C44.8236 34.791 44.8444 34.8892 44.8584 34.9881C44.873 35.0875 44.8821 35.1869 44.8852 35.2876C44.8882 35.3876 44.8852 35.4877 44.8767 35.5877C44.8675 35.6877 44.8535 35.7866 44.8328 35.8848ZM41.0925 27.1729L41.6787 22.7561H46.9516L48.9777 27.1927L41.0925 27.1729Z" fill="#3A2215"/>
</g>
</g>
</g>
<defs>
<filter id="filter0_d_1_322" x="0" y="0" width="61" height="61" filterUnits="userSpaceOnUse" color-interpolation-filters="sRGB">
<feFlood flood-opacity="0" result="BackgroundImageFix"/>
<feColorMatrix in="SourceAlpha" type="matrix" values="0 0 0 0 0 0 0 0 0 0 0 0 0 0 0 0 0 0 127 0" result="hardAlpha"/>
<feOffset dy="4"/>
<feGaussianBlur stdDeviation="2"/>
<feComposite in2="hardAlpha" operator="out"/>
<feColorMatrix type="matrix" values="0 0 0 0 0 0 0 0 0 0 0 0 0 0 0 0 0 0 0.25 0"/>
<feBlend mode="normal" in2="BackgroundImageFix" result="effect1_dropShadow_1_322"/>
<feBlend mode="normal" in="SourceGraphic" in2="effect1_dropShadow_1_322" result="shape"/>
</filter>
<clipPath id="clip0_1_322">
<rect width="42" height="28" fill="white" transform="translate(9 13)"/>
</clipPath>
</defs>
</svg>
