<svg width="90" height="14" viewBox="0 0 90 14" fill="none" xmlns="http://www.w3.org/2000/svg">
<path d="M6.80317 0.453854C7.06098 -0.151285 7.93905 -0.151285 8.19686 0.453856L9.71844 4.0255C9.82719 4.28061 10.0729 4.45492 10.355 4.477L14.3045 4.78613C14.9737 4.8385 15.245 5.65379 14.7352 6.08016L11.7261 8.59665C11.5112 8.77643 11.4173 9.05848 11.4829 9.3272L12.4023 13.0899C12.558 13.7274 11.8477 14.2313 11.2748 13.8897L7.89342 11.8733C7.65189 11.7293 7.34814 11.7293 7.10663 11.8733L3.72525 13.8897C3.15234 14.2313 2.44197 13.7274 2.59773 13.0899L3.51708 9.3272C3.58274 9.05848 3.48888 8.77643 3.27395 8.59665L0.264797 6.08016C-0.245039 5.65379 0.026301 4.8385 0.69547 4.78613L4.64503 4.477C4.92714 4.45492 5.17288 4.28061 5.28156 4.0255L6.80317 0.453854Z" fill="#C9B079"/>
<path d="M25.8032 0.453854C26.061 -0.151285 26.9391 -0.151285 27.1969 0.453856L28.7184 4.0255C28.8272 4.28061 29.0729 4.45492 29.355 4.477L33.3045 4.78613C33.9737 4.8385 34.245 5.65379 33.7352 6.08016L30.7261 8.59665C30.5112 8.77643 30.4173 9.05848 30.4829 9.3272L31.4023 13.0899C31.558 13.7274 30.8477 14.2313 30.2748 13.8897L26.8934 11.8733C26.6519 11.7293 26.3481 11.7293 26.1066 11.8733L22.7253 13.8897C22.1523 14.2313 21.442 13.7274 21.5977 13.0899L22.5171 9.3272C22.5827 9.05848 22.4889 8.77643 22.2739 8.59665L19.2648 6.08016C18.755 5.65379 19.0263 4.8385 19.6955 4.78613L23.645 4.477C23.9271 4.45492 24.1729 4.28061 24.2816 4.0255L25.8032 0.453854Z" fill="#C9B079"/>
<path d="M44.8032 0.453854C45.061 -0.151285 45.9391 -0.151285 46.1969 0.453856L47.7184 4.0255C47.8272 4.28061 48.0729 4.45492 48.355 4.477L52.3045 4.78613C52.9737 4.8385 53.245 5.65379 52.7352 6.08016L49.7261 8.59665C49.5112 8.77643 49.4173 9.05848 49.4829 9.3272L50.4023 13.0899C50.558 13.7274 49.8477 14.2313 49.2748 13.8897L45.8934 11.8733C45.6519 11.7293 45.3481 11.7293 45.1066 11.8733L41.7253 13.8897C41.1523 14.2313 40.442 13.7274 40.5977 13.0899L41.5171 9.3272C41.5827 9.05848 41.4889 8.77643 41.2739 8.59665L38.2648 6.08016C37.755 5.65379 38.0263 4.8385 38.6955 4.78613L42.645 4.477C42.9271 4.45492 43.1729 4.28061 43.2816 4.0255L44.8032 0.453854Z" fill="#C9B079"/>
<path fill-rule="evenodd" clip-rule="evenodd" d="M70.9198 5.20949L70.9796 5.3937C71.0288 5.53274 70.9874 5.68726 70.8749 5.78422L67.2399 8.84209L68.3169 13.4252C68.3534 13.5717 68.2974 13.7255 68.1748 13.8157L68.0102 13.9262C67.9463 13.9756 67.8671 14.0016 67.7859 13.9999C67.7174 14.0013 67.6499 13.9834 67.5914 13.9483L63.5002 11.4947L59.4314 13.9483C59.3729 13.9834 59.3054 14.0013 59.2369 13.9999C59.1557 14.0016 59.0764 13.9756 59.0125 13.9262L58.8255 13.8157C58.7029 13.7255 58.6469 13.5717 58.6834 13.4252L59.7604 8.84209L56.1329 5.79159C56.0146 5.6952 55.9699 5.53639 56.0207 5.3937L56.103 5.20949C56.1468 5.06391 56.2783 4.96085 56.4321 4.9516L61.2115 4.57582L63.0439 0.235869C63.1026 0.0917403 63.2453 -0.00195692 63.4029 8.18955e-05H63.5974C63.7536 -0.00318375 63.8947 0.0914846 63.9489 0.235869L65.8113 4.57582L70.5907 4.9516C70.7445 4.96085 70.876 5.06391 70.9198 5.20949ZM66.5817 11.8336L65.744 8.38525L68.489 6.07896L64.8913 5.79896L63.5002 2.51268V9.98418L66.5817 11.8336Z" fill="#C9B079"/>
<path d="M84.2585 4.22157L84.2584 4.22146L82.7369 0.649828C82.7369 0.649826 82.7369 0.649824 82.7369 0.649822C82.6961 0.554029 82.6091 0.5 82.5 0.5C82.3909 0.5 82.304 0.554031 82.2632 0.649827L80.7416 4.22147C80.558 4.65235 80.1471 4.93923 79.684 4.97547L75.7345 5.2846C75.4907 5.30368 75.4358 5.57134 75.5856 5.69661L78.5947 8.21309L78.5947 8.21313C78.9535 8.51317 79.1144 8.98899 79.0028 9.44589L78.0834 13.2086C78.0599 13.3051 78.0948 13.3905 78.1775 13.4492C78.2614 13.5086 78.3686 13.5202 78.4692 13.4603L84.2585 4.22157ZM84.2585 4.22157C84.4421 4.65234 84.853 4.93923 85.316 4.97547L89.2655 5.2846C89.5093 5.30368 89.5642 5.57134 89.4144 5.69661L86.4053 8.2131L86.4053 8.21313C86.0467 8.51313 85.8856 8.98892 85.9972 9.4459L86.9166 13.2086C86.9402 13.3051 86.9052 13.3905 86.8225 13.4492C86.7387 13.5086 86.6314 13.5202 86.5308 13.4603L83.1495 11.4439C82.7502 11.2058 82.2498 11.2057 81.8505 11.4439C81.8505 11.4439 81.8505 11.4439 81.8505 11.4439L78.4692 13.4603L84.2585 4.22157Z" stroke="#29180F"/>
</svg>
